Music video by Ciara performing Sorry. (C) 2012 Epic Records, a division of Sony Music Entertainment.

Things ain't going too easy for Ciara, lets hear what she has to say.

                          1080p Full HD MP4 Video
                                     +
                           96 kbps/VBR M4A Audio

Cover: 
 
http://www.shotpix.com/images/71473102038694766481.jpeg

Sing along!
English subtitles included.


					
               Details:

General
Complete name                  : Ciara - Sorry.mp4
Format                         : MPEG-4
File size                      : 41.5 MiB
Duration                       : 4mn 41s
Overall bit rate mode          : Variable
Overall bit rate               : 1 238 Kbps

Video
ID                             : 1
Format                         : AVC
Format/Info                    : Advanced Video Codec
Codec ID                       : avc1
Codec ID/Info                  : Advanced Video Coding
Duration                       : 4mn 41s
Bit rate mode                  : Variable
Bit rate                       : 1 108 Kbps
Maximum bit rate               : 50.0 Mbps
Width                          : 1 920 pixels
Height                         : 772 pixels
Display aspect ratio           : 2.487
Frame rate mode                : Variable
Frame rate                     : 23.976 fps
Stream size                    : 37.1 MiB (89%)


[code]
Audio
ID                             : 2
Format                         : AAC
Format/Info                    : Advanced Audio Codec
Format profile                 : LC
Codec ID                       : 40
Duration                       : 4mn 41s
Bit rate mode                  : Variable
Bit rate                       : 125 Kbps
Maximum bit rate               : 211 Kbps
Channel(s)                     : 2 channels
Channel positions              : Front: L R
Sampling rate                  : 48.0 KHz
Stream size                    : 4.18 MiB (10%)






Screens:

 
http://www.shotpix.com/images/98759938781063278404.jpg
 
http://www.shotpix.com/images/53310313051389015827.jpg



Thumbs:
 
http://www.shotpix.com/images/92737198762116636059.jpg


------------------------------------------------------------------------


Notes:

* Best played on VLC Media Player.
* Install shark007 codecs in case of any kind of problem in playback (For non-VLC Media Player users).
* Alternatively, install Core AVC codecs, the fastest decoder that there is coupled with Community Center Codec Pack and play on Windows Media Player Classic.
* Read NFO
* Help in seeding this torrent as much as you can. 



Greets to: VYTO, srkfan, MgB, staff members at ExtraTorrent, TPB,KAT, 1337x, PublicHD, Ahashare,
SilverTorrent, TorrentMafia, P2PDL, and all others


Encoder Notes: Looking For Early Access To Anything You Can Provide DVDScr, R5, DVDRips, BluRay, Direct Audio, Early Music Releases, Seedboxes, Links, Dedicated Servers, Advance / Promo CDs/DVDs. If You Got anything to
offer contact me at "contact@tinym.eu"

                                         Enjoy!